<?xml version="1.0" encoding="utf-8"?>
<svg viewBox="0 0 500 500" xmlns="http://www.w3.org/2000/svg">
  <title>Group 28</title>
  <desc>Created with Sketch.</desc>
  <g id="Desktop" stroke="none" stroke-width="1" fill="none" fill-rule="evenodd" transform="matrix(4.651659, 0, 0, 5.364058, 200.493393, 141.033905)" style="">
    <g id="Group-28" fill="#7159C1">
      <g id="Group-4" transform="matrix(2.329567, 0, 0, 1.686193, -18.484106, -2.34216)" style="filter: none;">
        <path d="M12.4604649,20.685297 C11.6669455,20.1983721 8.31857782,18.1519421 8.31857782,18.1519421 C8.31857782,18.1519421 4.97177192,16.1022263 4.1771593,15.6173355 C4.1012588,15.5710213 4.00427484,15.6232813 4.00005814,15.7121544 C3.9913124,15.8978806 3.97834997,16.1696635 3.97132215,16.3214364 C3.9680425,16.3951323 3.98678336,16.4672635 4.025983,16.5296937 C4.2010539,16.8088306 4.71689618,17.6310639 4.97676949,18.0458576 C5.0746905,18.2023244 5.10389501,18.3921187 5.05751137,18.5708039 L4.38580758,21.159548 C4.35894568,21.263442 4.39564654,21.3728123 4.47966808,21.4396237 C4.82590553,21.7148489 5.25382192,22.0176123 5.76982037,22.3332059 C6.28550646,22.648956 6.74996754,22.8921055 7.15242758,23.0748588 C7.25003625,23.1191389 7.36404317,23.1019276 7.44384801,23.0305787 L9.43584565,21.2496729 C9.57343482,21.12669 9.7552212,21.0659808 9.93888166,21.0819405 C10.4256756,21.12403 11.3908301,21.2080527 11.7189514,21.2366862 C11.7925093,21.2431013 11.8655986,21.2268288 11.9294737,21.1900591 C12.0611283,21.1144856 12.2964823,20.9789853 12.4571852,20.8865134 C12.5341789,20.8422332 12.5362092,20.7317676 12.4604649,20.685297" id="Fill-22"/>
        <path d="M6.83851812,23.9903151 C6.80415987,23.7811189 6.67125591,23.6010256 6.48181701,23.5065196 C5.95113822,23.2414647 5.52915644,22.9879884 5.41374396,22.9174219 C5.29833147,22.8468553 4.88041021,22.5864945 4.40267436,22.234444 C4.23228868,22.1088011 4.01161501,22.0726573 3.81015072,22.137591 L3.69489441,22.1746737 C2.89450336,22.432844 2.27777277,23.0768616 2.0541318,23.8889246 C1.50596154,25.8793394 0.473964643,29.6270336 0.00997209354,31.3118687 C-0.058275885,31.5593993 0.2393915,31.7413702 0.427893353,31.567692 C1.71211104,30.3846461 4.56853101,27.75303 6.08544774,26.3553116 C6.70436477,25.7851464 6.99453581,24.9413206 6.85803985,24.1101687 L6.83851812,23.9903151 Z" id="Fill-24"/>
        <path d="M26.3155698,1.38758245 C26.5581078,1.06573013 26.4127099,0.821954767 26.3043252,0.722128913 C26.3043252,0.722128913 26.3041691,0.721972446 26.3040129,0.721815979 C26.1896936,0.632004004 26.0506989,0.56800906 25.8907768,0.543756697 L22.3762402,0.0100482508 C22.0501492,-0.0393952757 21.7237458,0.0961050217 21.52806,0.36194221 L19.6102449,2.96664596 C19.3152325,3.36720112 19.416277,3.89512029 19.7598595,4.17895117 C19.7848473,4.19991772 19.7917189,4.23653097 19.7743836,4.2651644 C19.7598595,4.2887909 19.7322167,4.30021298 19.706448,4.29630131 L18.7392633,4.14937893 L17.406944,3.94706729 C17.0361873,3.89089568 16.664962,4.0447026 16.4424143,4.34715304 L10.8365534,11.9612997 C10.7636202,12.0603432 10.6274366,12.0874119 10.5223316,12.0238864 L5.12589991,8.75857958 C4.76904263,8.54265532 4.30333217,8.66282186 4.0957771,9.0280155 C3.89353195,9.38382114 4.0372119,9.83929615 4.38688518,10.0509958 L4.52634844,10.1353314 C4.59537729,10.1769516 4.63254667,10.2561239 4.62052128,10.3360784 L4.4566949,11.4241489 C4.44107752,11.5286688 4.32441564,11.5834322 4.23430332,11.5288253 C4.23430332,11.5288253 3.46452234,11.0703774 3.44484444,11.0583294 C2.80656186,10.6668494 1.97228108,10.8679093 1.58153407,11.5073893 C1.2335787,12.0769287 1.35555049,12.8012137 1.83687834,13.22962 C1.85171485,13.2430761 1.99133429,13.3507253 2.02741045,13.3727872 C2.02819132,13.3732566 2.02897219,13.3738824 2.02975306,13.3741954 C2.02990923,13.3743518 2.0300654,13.3745083 2.0300654,13.3745083 L6.06138135,15.847154 C8.24047527,17.1657002 9.89685527,16.0845143 10.4139469,15.6967894 C10.8729419,15.3525623 11.3944065,14.9725043 12.2642949,15.5016752 C12.5760179,15.6914695 12.969576,15.6844285 13.2834855,15.4980765 L14.2870588,14.9024072 C14.5831644,14.7266949 14.9518909,14.7282595 15.2467472,14.9064753 L18.3035382,16.7562265 C18.4236359,16.8288271 18.5791851,16.7980031 18.6625819,16.6848776 L26.1340957,6.55239691 C26.7434861,5.73814339 26.292456,5.34212577 25.9212307,5.24480339 C25.8973361,5.23932705 25.8740662,5.23259898 25.8493908,5.22884377 L24.0574519,4.95690437 C24.0310585,4.95267977 24.0045089,4.94141416 23.9801458,4.9265498 C23.8808192,4.86584066 23.8495844,4.73534731 23.9103361,4.63567792 C24.5176962,3.81375752 26.3155698,1.38758245 26.3155698,1.38758245" id="Fill-26"/>
      </g>
      <g transform="matrix(5.130212, 0, 0, 5.13889, 29.261658, 62.955761)" style="">
        <path d="M 4.754 -13.967 C 4.754 -14.28 4.754 -14.593 4.754 -14.905 C 4.754 -15.108 4.752 -15.311 4.755 -15.513 C 4.757 -15.575 4.752 -15.651 4.79 -15.695 C 4.836 -15.748 4.924 -15.802 4.996 -15.805 C 5.056 -15.807 5.142 -15.747 5.177 -15.695 C 5.213 -15.639 5.211 -15.56 5.211 -15.492 C 5.214 -14.807 5.214 -14.122 5.212 -13.438 C 5.211 -13.152 5.14 -13.087 4.819 -13.086 C 4.029 -13.084 3.24 -13.085 2.451 -13.086 C 2.379 -13.086 2.295 -13.082 2.24 -13.113 C 2.173 -13.15 2.103 -13.215 2.084 -13.279 C 2.059 -13.367 2.126 -13.446 2.228 -13.473 C 2.318 -13.497 2.417 -13.506 2.512 -13.507 C 3.059 -13.51 3.607 -13.508 4.155 -13.509 C 4.24 -13.509 4.325 -13.515 4.458 -13.521 C 4.397 -13.603 4.364 -13.655 4.322 -13.701 C 3.183 -14.935 1.756 -15.824 0.059 -16.394 C -1.381 -16.877 -2.876 -17.041 -4.402 -16.926 C -6.508 -16.767 -8.382 -16.091 -9.992 -14.897 C -11.94 -13.453 -13.1 -11.625 -13.452 -9.421 C -13.693 -7.916 -13.486 -6.455 -12.843 -5.041 C -12.825 -5.002 -12.805 -4.964 -12.789 -4.925 C -12.714 -4.746 -12.75 -4.637 -12.897 -4.59 C -13.037 -4.546 -13.146 -4.597 -13.221 -4.767 C -13.343 -5.04 -13.465 -5.314 -13.563 -5.595 C -13.808 -6.291 -13.958 -7.002 -14.004 -7.733 C -14.104 -9.286 -13.77 -10.76 -13.006 -12.166 C -12.421 -13.242 -11.622 -14.182 -10.612 -14.98 C -9.073 -16.196 -7.273 -16.961 -5.213 -17.252 C -2.795 -17.594 -0.517 -17.231 1.625 -16.213 C 2.768 -15.67 3.739 -14.942 4.58 -14.081 C 4.621 -14.039 4.664 -13.998 4.706 -13.957 C 4.722 -13.96 4.738 -13.964 4.754 -13.967" style="stroke-width: 0.622213px; paint-order: stroke markers;"/>
        <path d="M -11.686 -3.16 C -11.607 -3.066 -11.534 -2.968 -11.448 -2.879 C -10.308 -1.695 -8.9 -0.837 -7.238 -0.291 C -5.932 0.137 -4.576 0.317 -3.185 0.249 C -1.465 0.165 0.145 -0.255 1.598 -1.067 C 4.165 -2.501 5.711 -4.527 6.194 -7.144 C 6.481 -8.695 6.272 -10.206 5.607 -11.668 C 5.58 -11.727 5.551 -11.785 5.532 -11.845 C 5.494 -11.969 5.542 -12.069 5.652 -12.112 C 5.764 -12.155 5.879 -12.119 5.948 -11.997 C 6.029 -11.853 6.099 -11.704 6.161 -11.553 C 6.469 -10.799 6.663 -10.024 6.746 -9.226 C 6.898 -7.763 6.637 -6.357 6.006 -5 C 5.553 -4.026 4.912 -3.154 4.104 -2.368 C 3.174 -1.463 2.078 -0.757 0.825 -0.229 C -0.213 0.209 -1.308 0.484 -2.452 0.606 C -4.601 0.834 -6.638 0.502 -8.562 -0.351 C -9.811 -0.905 -10.876 -1.664 -11.781 -2.592 C -11.818 -2.63 -11.855 -2.666 -11.893 -2.702 C -11.904 -2.712 -11.92 -2.716 -11.954 -2.732 C -11.961 -2.673 -11.973 -2.622 -11.973 -2.57 C -11.974 -2.13 -11.973 -1.69 -11.975 -1.25 C -11.975 -1.181 -11.976 -1.109 -11.995 -1.042 C -12.024 -0.945 -12.103 -0.887 -12.224 -0.889 C -12.335 -0.891 -12.405 -0.949 -12.431 -1.038 C -12.451 -1.104 -12.458 -1.175 -12.458 -1.245 C -12.46 -1.915 -12.459 -2.586 -12.459 -3.257 C -12.459 -3.292 -12.459 -3.327 -12.455 -3.361 C -12.432 -3.534 -12.361 -3.595 -12.16 -3.602 C -11.983 -3.608 -11.806 -3.605 -11.629 -3.605 C -10.992 -3.605 -10.356 -3.605 -9.72 -3.604 C -9.64 -3.604 -9.557 -3.603 -9.48 -3.587 C -9.376 -3.565 -9.316 -3.498 -9.316 -3.403 C -9.317 -3.308 -9.379 -3.242 -9.483 -3.221 C -9.56 -3.205 -9.643 -3.206 -9.723 -3.206 C -10.287 -3.205 -10.85 -3.205 -11.414 -3.205 L -11.653 -3.205 C -11.664 -3.19 -11.675 -3.175 -11.686 -3.16" style="fill: rgb(113, 89, 193); paint-order: stroke;"/>
      </g>
    </g>
  </g>
</svg>